<?xml version="1.0" standalone="no"?>
<!DOCTYPE svg PUBLIC "-//W3C//DTD SVG 20010904//EN"
 "http://www.w3.org/TR/2001/REC-SVG-20010904/DTD/svg10.dtd">
<svg version="1.0" xmlns="http://www.w3.org/2000/svg"
 width="240.000000pt" height="240.000000pt" viewBox="0 0 240.000000 240.000000"
 preserveAspectRatio="xMidYMid meet">
<metadata>
Created by potrace 1.10, written by Peter Selinger 2001-2011
</metadata>
<g transform="translate(0.000000,240.000000) scale(0.100000,-0.100000)"
fill="#000000" stroke="none">
<path d="M948 2124 c-9 -10 -34 -20 -55 -23 -45 -7 -53 -33 -30 -90 8 -20 22
-56 31 -81 19 -53 71 -91 154 -110 64 -15 77 -32 97 -126 17 -82 20 -261 4
-301 l-11 -28 -14 33 c-11 24 -20 32 -40 32 -14 0 -51 15 -82 34 -32 19 -93
54 -137 78 -86 47 -88 50 -135 176 -52 140 -50 193 9 246 25 23 27 44 5 53
-10 3 -29 -8 -54 -32 -36 -35 -43 -37 -151 -53 l-114 -16 -63 -57 c-34 -31
-94 -73 -132 -93 -68 -36 -71 -39 -105 -114 -20 -42 -54 -107 -76 -144 -36
-59 -41 -77 -46 -146 -6 -87 17 -221 42 -242 11 -9 13 -1 12 47 -2 97 74 223
168 279 54 31 144 43 182 23 32 -17 102 -115 139 -196 16 -35 31 -63 34 -63 3
0 15 18 27 39 16 27 38 47 75 65 57 29 75 31 130 16 l36 -11 -66 -65 c-41 -40
-81 -70 -102 -76 -32 -9 -100 -63 -100 -80 0 -12 31 -38 45 -38 7 0 15 10 17
22 2 12 9 23 17 26 11 4 12 -2 7 -24 -10 -43 -9 -66 6 -75 18 -12 51 -11 44 0
-4 5 -2 21 4 36 15 40 54 31 58 -12 4 -36 21 -43 46 -17 18 17 22 99 6 109
-31 19 -29 42 7 78 29 30 43 37 74 37 28 0 41 -5 49 -19 16 -31 12 -84 -11
-116 -11 -16 -33 -55 -49 -86 -19 -36 -42 -65 -64 -79 -20 -12 -49 -37 -65
-57 l-29 -35 -80 17 c-66 13 -89 14 -124 4 -96 -25 -164 -76 -224 -166 -65
-98 -46 -169 65 -246 43 -30 51 -32 126 -30 l80 2 -3 -71 -4 -71 27 21 c31 25
55 19 55 -14 0 -31 13 -31 34 1 20 30 45 32 79 5 34 -27 37 -26 37 14 0 18 7
39 15 46 8 7 18 30 21 51 7 45 2 42 144 59 52 6 127 17 166 26 70 15 75 15
187 -10 63 -14 140 -26 171 -26 48 0 56 -3 56 -19 0 -25 22 -42 89 -67 31 -12
64 -25 74 -29 12 -5 17 -3 17 9 0 13 6 13 46 -4 56 -25 57 -25 44 -1 -15 29
-13 32 15 21 36 -14 31 2 -15 51 -22 24 -40 48 -40 54 0 7 33 24 73 40 121 46
149 67 222 165 38 49 72 90 76 90 5 0 23 13 41 29 18 15 39 30 47 32 7 3 19
20 25 40 15 43 1 85 -35 102 -29 15 -36 49 -14 67 22 18 19 57 -6 71 -17 9
-20 17 -15 41 6 31 -9 72 -24 63 -13 -8 -22 13 -15 35 6 19 8 19 49 -10 23
-17 50 -43 59 -59 24 -42 59 -195 51 -227 -12 -49 17 -21 43 41 24 56 25 68
20 165 -8 128 -20 199 -53 311 -25 82 -28 86 -70 109 -48 25 -140 119 -155
156 -5 14 -31 34 -64 50 -52 26 -93 64 -157 145 -24 31 -28 33 -42 18 -15 -14
-15 -19 10 -62 33 -60 30 -71 -47 -207 -33 -58 -66 -116 -74 -130 -25 -46
-215 -137 -261 -126 -17 5 -28 -1 -43 -21 -12 -14 -23 -24 -25 -22 -2 2 -13
47 -25 99 -11 52 -33 145 -49 206 -17 63 -26 117 -22 124 5 8 0 24 -12 41 -11
15 -18 34 -15 43 6 14 11 14 48 1 23 -9 48 -20 55 -26 18 -15 58 -7 62 13 2
11 -13 26 -45 44 -93 53 -151 94 -171 121 -18 24 -28 28 -101 34 -66 6 -86 12
-112 33 -35 30 -58 33 -81 10z m1162 -800 c22 -15 40 -29 40 -31 0 -2 -4 -1
-10 2 -5 3 -10 -3 -10 -14 0 -13 -7 -21 -17 -21 -14 0 -15 -11 -10 -97 7 -97
7 -97 -21 -120 -24 -19 -25 -24 -14 -42 18 -31 15 -51 -9 -51 -16 0 -19 -4
-13 -17 4 -10 9 -43 10 -73 1 -30 3 -58 3 -62 1 -5 12 -8 25 -8 44 0 42 -22
-8 -66 -52 -47 -135 -83 -211 -91 -50 -5 -50 -5 -72 35 -13 22 -59 77 -104
123 -85 89 -119 135 -119 164 0 9 -12 51 -26 92 -23 66 -25 81 -15 114 15 50
35 69 75 69 27 0 42 -9 75 -45 22 -24 41 -48 41 -52 0 -4 -9 -16 -19 -27 -10
-12 -22 -34 -25 -51 -5 -24 -2 -33 14 -43 22 -14 40 -9 40 12 0 6 5 17 12 24
18 18 38 -5 38 -44 0 -32 2 -34 28 -28 41 10 44 14 38 48 -4 18 -3 35 0 39 10
9 34 -4 34 -19 0 -17 22 -18 38 -2 22 22 14 57 -17 72 -16 9 -31 22 -34 31 -4
8 -16 15 -29 15 -14 0 -44 23 -83 63 l-60 62 32 3 c49 5 84 -20 128 -92 22
-36 42 -65 45 -65 3 0 25 32 48 72 38 64 105 147 118 147 2 0 22 -12 44 -26z"/>
</g>
</svg>
