<?xml version="1.0" standalone="no"?>
<!DOCTYPE svg PUBLIC "-//W3C//DTD SVG 20010904//EN"
 "http://www.w3.org/TR/2001/REC-SVG-20010904/DTD/svg10.dtd">
<svg version="1.0" xmlns="http://www.w3.org/2000/svg"
 width="240.000000pt" height="240.000000pt" viewBox="0 0 240.000000 240.000000"
 preserveAspectRatio="xMidYMid meet">
<metadata>
Created by potrace 1.10, written by Peter Selinger 2001-2011
</metadata>
<g transform="translate(0.000000,240.000000) scale(0.100000,-0.100000)"
fill="#000000" stroke="none">
<path d="M1147 2379 c-83 -63 -240 -142 -344 -175 -96 -30 -116 -40 -135 -67
-12 -18 -42 -51 -66 -74 -43 -41 -45 -43 -38 -85 26 -154 27 -149 -16 -193
-43 -45 -48 -76 -22 -131 23 -48 59 -74 105 -74 21 0 41 -5 44 -10 4 -6 24
-19 45 -30 37 -19 43 -19 100 -6 33 8 62 10 65 6 5 -8 1 -35 -11 -82 -3 -10
-29 -26 -61 -38 -31 -11 -64 -31 -74 -44 -17 -21 -124 -62 -213 -81 -20 -4
-70 -48 -160 -141 -121 -124 -133 -140 -159 -209 -41 -109 -36 -119 85 -176
20 -10 46 17 31 32 -12 12 7 97 23 103 7 3 15 -7 19 -21 6 -25 8 -23 76 46 38
39 69 76 69 82 0 18 41 93 78 141 30 40 47 51 109 74 40 15 75 25 78 23 2 -3
-11 -37 -30 -76 -45 -94 -65 -175 -65 -263 0 -39 -5 -81 -12 -93 -6 -12 -45
-59 -87 -104 -42 -45 -92 -108 -111 -139 l-34 -57 17 -61 c9 -33 22 -80 29
-103 17 -61 3 -85 -76 -123 -71 -33 -111 -77 -60 -64 25 6 26 5 19 -24 l-7
-32 36 15 c46 20 47 19 40 -10 -8 -31 -8 -31 58 0 29 13 78 30 108 36 62 12
206 77 214 97 3 6 2 32 -3 57 -11 57 1 79 64 123 54 37 48 36 183 9 56 -11 66
-16 77 -42 7 -17 31 -48 54 -70 46 -43 50 -61 22 -96 -42 -54 -78 -150 -58
-157 4 -1 21 5 38 13 17 9 44 15 62 13 26 -3 32 -8 40 -38 15 -60 27 -65 54
-25 43 63 97 74 126 25 23 -38 31 -38 48 3 7 17 21 44 32 60 20 30 19 58 -9
167 -22 87 -21 90 34 90 196 1 384 150 451 360 11 36 23 81 26 101 4 28 12 39
40 52 28 14 37 25 50 70 9 30 25 63 36 73 40 36 40 47 5 150 -19 55 -37 108
-42 119 -8 19 -8 19 -14 -3 -4 -19 -16 -8 -80 82 -51 71 -77 100 -80 90 -4
-11 -18 0 -50 40 -24 31 -50 58 -57 60 -16 6 -16 5 -3 -31 8 -21 -7 -9 -59 47
-39 41 -73 71 -76 68 -4 -3 16 -57 44 -120 68 -153 95 -225 80 -210 -18 17
-30 15 -22 -5 8 -19 -9 -12 -44 20 -31 27 -29 13 7 -66 34 -74 35 -88 18 -152
l-12 -44 41 -38 c28 -26 43 -50 48 -76 8 -42 43 -75 88 -84 25 -5 28 -9 22
-32 -19 -80 -129 -188 -217 -212 -37 -9 -168 -4 -168 8 0 12 47 42 66 43 11 0
35 16 54 35 l33 34 -23 78 c-28 96 -103 284 -135 338 -29 51 -62 81 -98 89
-48 11 -175 78 -215 112 -21 18 -53 36 -72 41 -27 7 -36 17 -52 57 -35 89 -30
127 34 251 54 105 56 113 48 157 -9 44 -81 203 -115 251 -8 12 -15 28 -15 35
0 8 29 44 65 81 72 74 82 108 43 135 -30 21 -47 20 -81 -5z m242 -1193 c48
-25 50 -27 56 -78 3 -29 5 -108 3 -175 -2 -95 -6 -119 -15 -111 -13 11 -19 29
-53 167 -12 47 -37 118 -56 159 -18 41 -34 76 -34 78 0 5 44 -13 99 -40z m191
-461 c0 -62 -15 -78 -42 -45 -22 27 -17 77 9 97 25 19 33 6 33 -52z"/>
</g>
</svg>
