<?xml version="1.0" standalone="no"?>
<!DOCTYPE svg PUBLIC "-//W3C//DTD SVG 20010904//EN"
 "http://www.w3.org/TR/2001/REC-SVG-20010904/DTD/svg10.dtd">
<svg version="1.0" xmlns="http://www.w3.org/2000/svg"
 width="240.000000pt" height="240.000000pt" viewBox="0 0 240.000000 240.000000"
 preserveAspectRatio="xMidYMid meet">
<metadata>
Created by potrace 1.10, written by Peter Selinger 2001-2011
</metadata>
<g transform="translate(0.000000,240.000000) scale(0.100000,-0.100000)"
fill="#000000" stroke="none">
<path d="M904 2115 c-79 -12 -168 -46 -222 -83 -15 -11 -46 -23 -70 -27 -23
-4 -83 -28 -134 -53 -113 -58 -146 -101 -147 -194 -1 -31 4 -60 9 -63 6 -4 28
9 51 28 33 29 133 89 174 106 5 2 -17 -25 -51 -61 -86 -92 -86 -100 -11 -142
68 -37 165 -72 174 -62 4 3 12 -3 20 -13 7 -11 26 -22 43 -26 16 -4 33 -11 36
-17 4 -7 -22 -8 -80 -3 -73 6 -87 5 -92 -8 -4 -13 -10 -14 -23 -5 -19 11 -91
3 -91 -10 0 -5 6 -14 13 -21 7 -8 0 -7 -21 3 -40 21 -130 13 -112 -9 8 -10 -1
-9 -40 2 -47 14 -53 14 -71 -3 -10 -9 -18 -23 -17 -30 2 -6 -10 -24 -25 -38
-21 -20 -39 -26 -71 -26 -68 0 -107 -56 -44 -62 32 -3 30 -5 -34 -35 -68 -32
-68 -32 -68 -73 0 -44 1 -44 57 -23 16 6 17 -13 2 -23 -8 -4 -7 -9 2 -15 27
-17 54 -9 92 29 l39 37 -17 -33 c-9 -19 -14 -36 -11 -39 3 -3 26 -8 51 -10
l45 -6 27 62 c14 33 28 59 30 57 7 -7 -19 -112 -38 -152 -27 -58 -52 -194 -40
-219 5 -11 14 -34 21 -52 6 -17 22 -46 35 -63 20 -27 22 -36 13 -63 -24 -77
-25 -74 36 -74 38 0 62 -5 74 -17 17 -15 21 -15 52 0 l33 17 39 -44 c46 -53
60 -82 52 -114 -6 -22 -4 -23 51 -23 45 1 60 -4 76 -21 24 -25 27 -26 49 -6
10 9 40 18 69 22 42 5 51 9 51 26 0 16 28 111 37 126 1 2 24 -6 50 -17 43 -18
66 -20 231 -19 l184 2 -7 -55 c-3 -30 -16 -74 -28 -97 -24 -48 -18 -62 21 -47
33 13 95 -11 118 -45 15 -21 18 -21 39 -7 38 25 100 31 126 12 34 -23 49 -20
49 10 0 31 79 146 116 171 14 9 35 36 46 59 18 39 23 43 48 38 16 -4 40 1 60
11 23 12 45 15 72 11 42 -7 43 -6 27 39 -11 29 -9 35 26 81 93 121 96 233 10
363 -31 47 -34 56 -21 63 13 7 14 13 5 31 -9 17 -4 15 22 -9 22 -21 49 -34 77
-38 43 -6 51 0 30 24 -8 8 -3 7 14 -3 32 -20 47 -21 85 -6 l28 10 -45 40 -45
39 35 -14 c33 -13 37 -13 63 9 15 13 27 28 27 32 0 6 -129 60 -235 98 -20 7
-20 7 0 15 17 7 11 12 -40 35 -33 16 -74 28 -92 29 -17 0 -29 4 -27 8 3 4 4 8
2 8 -2 0 -39 7 -83 16 -78 15 -167 26 -232 28 -25 1 -33 5 -33 20 0 15 2 16
15 6 19 -16 65 -4 177 47 58 27 75 39 71 51 -5 11 -2 14 9 9 18 -6 48 21 48
45 0 8 -11 25 -25 38 -14 13 -25 27 -25 32 0 10 55 -17 89 -44 22 -17 26 -17
33 -3 15 25 0 102 -27 145 -14 22 -42 51 -63 65 -39 25 -172 75 -203 75 -9 0
-38 18 -64 39 -64 53 -187 95 -275 93 -50 -1 -77 -7 -122 -30 -49 -26 -59 -28
-69 -16 -10 13 -14 12 -30 -2 -17 -16 -21 -15 -54 15 -19 17 -45 33 -58 35
-60 13 -99 13 -173 1z m504 -392 c39 -47 142 -197 142 -208 0 -3 -7 -5 -16 -5
-8 0 -13 4 -10 9 3 5 -6 17 -20 26 -20 13 -32 14 -48 7 -32 -14 -66 5 -66 38
0 14 -7 53 -16 85 -30 115 -27 120 34 48z m-392 -19 c-9 -26 -16 -65 -16 -87
0 -30 -3 -38 -14 -34 -8 3 -20 -1 -27 -9 -7 -8 -26 -14 -48 -12 -20 0 -44 -2
-54 -7 -33 -14 39 89 105 150 33 31 63 54 65 51 3 -3 -2 -26 -11 -52z"/>
</g>
</svg>
