<?xml version="1.0" standalone="no"?>
<!DOCTYPE svg PUBLIC "-//W3C//DTD SVG 20010904//EN"
 "http://www.w3.org/TR/2001/REC-SVG-20010904/DTD/svg10.dtd">
<svg version="1.0" xmlns="http://www.w3.org/2000/svg"
 width="240.000000pt" height="240.000000pt" viewBox="0 0 240.000000 240.000000"
 preserveAspectRatio="xMidYMid meet">
<metadata>
Created by potrace 1.10, written by Peter Selinger 2001-2011
</metadata>
<g transform="translate(0.000000,240.000000) scale(0.100000,-0.100000)"
fill="#000000" stroke="none">
<path d="M1004 2264 c4 -33 1 -56 -10 -80 -20 -43 -44 -45 -44 -4 0 33 -11 38
-30 15 -17 -21 -29 -19 -52 10 -27 35 -35 32 -40 -19 -3 -24 -28 -92 -56 -152
-55 -121 -92 -230 -92 -276 0 -30 0 -31 -46 -25 l-45 5 3 -79 c2 -44 1 -79 -2
-79 -3 0 -26 40 -50 89 l-44 90 -63 7 c-35 3 -67 4 -70 0 -3 -3 -1 -29 5 -58
5 -29 9 -55 7 -57 -2 -1 -20 30 -41 70 -20 41 -38 76 -39 77 -4 4 -147 -17
-152 -22 -2 -2 1 -15 7 -30 9 -25 7 -28 -20 -38 -17 -5 -30 -15 -30 -21 0 -7
14 -36 30 -66 17 -30 29 -55 28 -57 -2 -1 -31 11 -65 26 -68 31 -64 33 -78
-36 -5 -28 -2 -34 29 -54 20 -12 36 -23 36 -25 0 -3 -18 -9 -40 -15 l-40 -11
36 -57 c50 -78 47 -76 99 -58 39 13 45 13 35 1 -6 -8 -20 -17 -31 -20 -27 -9
-24 -27 9 -58 20 -19 34 -25 47 -21 12 5 16 4 11 -4 -4 -6 23 -26 69 -50 l75
-40 43 30 c23 17 36 25 30 17 -20 -21 -16 -25 42 -49 47 -19 57 -20 71 -9 15
12 16 11 10 -7 -5 -16 2 -24 36 -41 l43 -21 -55 -24 c-143 -60 -340 -178 -340
-204 0 -13 15 -50 25 -62 2 -2 17 4 34 13 39 19 39 15 0 -41 l-30 -44 33 -15
c32 -14 34 -14 61 18 l28 32 -12 -33 c-17 -50 -9 -60 48 -52 64 8 84 21 97 61
6 20 19 35 30 37 17 4 18 -1 14 -42 l-6 -46 33 6 32 6 -29 -114 c-35 -136 -46
-284 -26 -343 12 -36 18 -41 58 -50 25 -6 56 -16 69 -24 19 -11 25 -11 31 0 7
10 21 10 64 3 51 -10 56 -9 56 8 0 14 8 18 39 18 l39 0 -10 33 c-9 29 -6 41
21 95 17 34 37 62 44 62 6 0 34 -11 61 -25 27 -14 75 -32 107 -41 53 -15 60
-20 92 -73 47 -75 78 -103 129 -112 24 -4 55 -11 71 -15 22 -5 27 -3 27 11 0
18 12 18 109 -1 31 -6 33 -5 26 15 -6 21 -5 22 29 16 43 -9 48 7 15 49 -13 17
-23 46 -25 74 -2 26 -6 72 -9 103 l-7 56 34 13 c18 8 50 24 71 37 l37 23 9
-22 c23 -60 103 -216 123 -241 16 -18 42 -32 83 -43 96 -26 107 -27 114 -15 6
9 15 9 35 1 41 -15 69 -13 62 5 -4 11 2 15 24 15 37 0 38 9 5 40 -24 22 -25
29 -25 130 0 123 -21 261 -56 363 l-25 72 23 15 c57 35 288 288 288 313 0 11
-9 34 -19 51 -11 17 -24 51 -31 76 -6 25 -23 64 -36 87 -13 23 -24 51 -24 62
0 11 -13 30 -29 42 -18 13 -34 38 -41 63 -6 22 -26 66 -44 96 -32 55 -33 55
-82 55 -27 0 -66 -4 -87 -8 -35 -7 -38 -6 -34 10 17 57 18 83 5 87 -52 16 -51
19 12 30 72 12 76 18 79 110 l1 39 -47 -6 c-47 -6 -47 -6 -20 9 22 12 27 22
29 57 2 53 0 88 -6 94 -2 2 -27 -8 -56 -22 -66 -34 -81 -28 -78 27 3 40 1 43
-25 46 -15 2 -32 12 -37 23 -11 20 -49 25 -109 13 l-31 -6 0 -84 c0 -46 -4
-84 -9 -84 -5 0 -23 25 -41 56 l-32 57 -44 -44 c-29 -29 -44 -52 -44 -69 0
-23 -8 -17 -83 56 -45 45 -101 90 -123 102 -38 19 -64 55 -64 87 0 18 -14 19
-41 4 -17 -9 -21 -7 -26 10 -6 24 -14 26 -31 9 -10 -10 -15 -10 -22 2 -8 12
-11 12 -27 -2 -17 -16 -20 -15 -52 18 -46 46 -55 44 -47 -12z"/>
</g>
</svg>
