<?xml version="1.0" standalone="no"?>
<!DOCTYPE svg PUBLIC "-//W3C//DTD SVG 20010904//EN"
 "http://www.w3.org/TR/2001/REC-SVG-20010904/DTD/svg10.dtd">
<svg version="1.0" xmlns="http://www.w3.org/2000/svg"
 width="240.000000pt" height="240.000000pt" viewBox="0 0 240.000000 240.000000"
 preserveAspectRatio="xMidYMid meet">
<metadata>
Created by potrace 1.10, written by Peter Selinger 2001-2011
</metadata>
<g transform="translate(0.000000,240.000000) scale(0.100000,-0.100000)"
fill="#000000" stroke="none">
<path d="M1465 2388 c-16 -5 -43 -14 -60 -20 -16 -6 -63 -15 -104 -20 -105
-14 -145 -28 -149 -55 -2 -12 11 -57 28 -99 34 -85 34 -125 1 -180 -18 -30
-34 -36 -216 -89 -64 -19 -142 -55 -188 -87 -27 -20 -30 -20 -66 -4 -40 19
-77 11 -114 -22 -21 -19 -21 -19 -84 72 -40 56 -69 69 -126 57 -50 -12 -97
-61 -97 -103 0 -32 69 -148 105 -176 l23 -18 -34 -55 c-18 -30 -34 -59 -34
-65 0 -7 -16 -35 -35 -63 -65 -97 -78 -127 -67 -148 7 -12 7 -25 1 -34 -12
-19 -11 -59 2 -59 6 0 19 5 29 10 29 15 31 -1 9 -71 -11 -35 -27 -104 -34
-152 -10 -63 -21 -97 -38 -120 -35 -46 -63 -104 -82 -170 -22 -74 -22 -269 -1
-349 14 -56 14 -57 -12 -107 -29 -56 -24 -71 26 -71 12 0 22 -3 22 -7 0 -4
-16 -34 -36 -65 -44 -72 -42 -90 11 -100 178 -31 394 23 503 128 46 44 48 45
122 48 97 5 237 32 321 62 37 13 69 24 73 24 8 0 50 -94 60 -134 6 -23 2 -34
-17 -55 -36 -38 -42 -67 -18 -80 28 -15 58 -14 201 8 227 35 282 40 340 29 40
-7 65 -6 95 2 22 7 46 14 54 16 18 6 -26 54 -89 97 -25 16 -47 32 -49 33 -2 2
11 25 28 53 50 77 71 149 71 239 0 70 -4 87 -34 148 -19 38 -53 87 -75 108
l-40 39 24 41 c34 58 75 171 75 206 l0 30 78 -7 c42 -3 85 -10 94 -14 9 -5 36
-9 60 -9 24 0 52 -7 62 -15 22 -17 34 -12 46 21 11 29 29 30 63 4 14 -11 30
-20 35 -20 15 0 25 36 17 60 -6 18 -3 19 24 14 39 -8 40 6 6 61 -13 22 -35 64
-49 93 -18 37 -60 87 -139 166 l-114 114 44 12 c54 16 73 41 73 100 0 88 -44
182 -88 188 -29 4 -251 -46 -279 -64 -19 -12 -23 -11 -37 11 -9 13 -16 26 -16
29 0 2 24 15 53 29 100 46 169 127 183 217 4 25 13 54 20 65 30 43 6 153 -39
177 -12 6 -44 8 -84 4 -62 -6 -63 -6 -63 18 0 38 -62 81 -111 78 -67 -4 -83
-4 -109 1 -14 3 -38 1 -55 -5z"/>
</g>
</svg>
