<?xml version="1.0" standalone="no"?>
<!DOCTYPE svg PUBLIC "-//W3C//DTD SVG 20010904//EN"
 "http://www.w3.org/TR/2001/REC-SVG-20010904/DTD/svg10.dtd">
<svg version="1.0" xmlns="http://www.w3.org/2000/svg"
 width="240.000000pt" height="240.000000pt" viewBox="0 0 240.000000 240.000000"
 preserveAspectRatio="xMidYMid meet">
<metadata>
Created by potrace 1.10, written by Peter Selinger 2001-2011
</metadata>
<g transform="translate(0.000000,240.000000) scale(0.100000,-0.100000)"
fill="#000000" stroke="none">
<path d="M451 2371 c-11 -16 -27 -55 -36 -87 -8 -32 -19 -60 -24 -64 -43 -26
-40 -168 5 -317 6 -20 3 -23 -25 -23 -30 0 -31 -2 -31 -40 0 -46 39 -131 70
-153 16 -11 22 -29 26 -78 3 -34 12 -91 20 -126 8 -35 12 -79 8 -101 l-6 -39
-82 -22 c-44 -12 -120 -35 -167 -52 -77 -27 -92 -37 -133 -84 -25 -30 -46 -61
-46 -69 0 -9 12 -23 27 -33 16 -9 42 -29 60 -44 17 -15 53 -34 80 -42 75 -25
220 -47 305 -47 86 0 98 -9 98 -72 0 -18 9 -65 21 -103 11 -39 23 -79 25 -90
4 -14 -6 -32 -30 -58 -53 -56 -106 -141 -122 -194 -15 -50 -17 -126 -4 -158 6
-16 0 -28 -28 -57 -20 -21 -33 -41 -29 -45 4 -4 28 -6 52 -4 44 2 45 1 61 -39
18 -45 29 -48 84 -20 49 25 62 25 85 0 10 -11 25 -20 34 -20 16 0 95 101 125
158 18 34 91 102 109 102 8 0 40 -10 73 -22 50 -18 82 -21 211 -22 l152 -1 35
-60 c51 -88 56 -106 44 -154 -15 -58 -4 -64 66 -44 l59 17 61 -34 62 -33 43
42 c24 23 48 40 55 38 30 -12 127 -29 132 -24 3 3 -5 41 -19 84 -62 188 -79
244 -76 247 2 2 29 11 59 21 128 41 255 128 326 223 124 167 145 341 53 445
-31 36 -42 59 -54 118 -9 41 -25 92 -35 115 -26 52 -25 56 9 87 46 41 57 92
36 161 -34 106 -121 163 -243 158 -136 -5 -261 -112 -305 -260 l-21 -73 -36 7
c-19 4 -53 10 -75 13 -25 4 -63 23 -102 51 -51 37 -63 52 -72 87 -6 23 -16 45
-22 49 -7 4 -2 14 15 29 29 25 46 63 46 104 0 16 9 36 21 47 23 21 75 99 102
153 26 52 40 149 29 198 -8 36 -6 52 14 100 13 32 24 73 24 91 0 30 -2 32 -34
32 -56 0 -153 -58 -242 -145 -69 -68 -151 -175 -167 -218 -3 -8 -20 -4 -53 15
-141 76 -318 77 -465 2 -27 -13 -51 -24 -54 -24 -3 0 -5 15 -5 34 0 51 -26
171 -55 252 -24 65 -75 144 -95 144 -5 0 -18 -13 -29 -29z"/>
</g>
</svg>
