<?xml version="1.0" standalone="no"?>
<!DOCTYPE svg PUBLIC "-//W3C//DTD SVG 20010904//EN"
 "http://www.w3.org/TR/2001/REC-SVG-20010904/DTD/svg10.dtd">
<svg version="1.0" xmlns="http://www.w3.org/2000/svg"
 width="240.000000pt" height="240.000000pt" viewBox="0 0 240.000000 240.000000"
 preserveAspectRatio="xMidYMid meet">
<metadata>
Created by potrace 1.10, written by Peter Selinger 2001-2011
</metadata>
<g transform="translate(0.000000,240.000000) scale(0.100000,-0.100000)"
fill="#000000" stroke="none">
<path d="M1880 2298 c0 -22 -52 -88 -86 -108 -55 -34 -169 -50 -363 -50 -153
0 -187 -3 -242 -21 -111 -36 -206 -87 -257 -138 -44 -43 -57 -66 -76 -123 -4
-15 -20 -17 -123 -17 -65 0 -126 -3 -136 -6 -9 -4 -27 -1 -40 7 -37 25 -145
58 -186 58 -32 0 -44 -6 -67 -32 -37 -44 -82 -145 -98 -221 -7 -34 -25 -80
-40 -102 -107 -156 -193 -490 -149 -578 19 -40 117 -125 203 -176 l65 -39 12
-113 c12 -117 26 -170 83 -300 29 -65 32 -78 23 -111 -9 -34 -8 -38 8 -38 13
0 19 -7 19 -21 0 -16 4 -19 18 -14 53 22 76 24 109 10 31 -13 41 -13 80 0 25
9 56 21 68 28 23 12 105 108 105 122 0 4 16 33 36 65 l36 58 44 -15 c29 -10
49 -24 58 -42 8 -14 26 -37 40 -50 14 -14 26 -35 26 -48 0 -22 3 -23 35 -17
l35 6 0 -40 c0 -23 -4 -44 -10 -47 -5 -3 -10 -17 -10 -31 0 -22 4 -24 50 -24
39 0 52 -4 60 -20 13 -23 35 -25 80 -6 29 12 37 11 61 -3 25 -14 29 -14 46 0
10 9 39 26 65 38 48 23 151 124 171 168 8 17 18 23 43 23 30 0 38 -6 74 -62
22 -35 40 -74 40 -86 0 -22 3 -23 41 -17 30 5 45 3 57 -8 13 -12 37 -15 102
-13 117 4 142 16 190 88 102 154 114 361 31 558 l-29 70 57 44 c101 78 132
137 153 290 11 84 5 145 -29 264 -19 70 -74 189 -117 256 -19 30 -49 87 -68
127 -28 63 -33 85 -33 150 0 64 4 84 28 127 32 58 26 66 -38 56 -51 -7 -53 -3
-31 59 12 33 12 39 0 44 -21 8 -56 -3 -98 -32 l-37 -25 -10 28 c-6 15 -18 35
-26 44 -18 20 -53 24 -53 6z"/>
</g>
</svg>
