<?xml version="1.0" standalone="no"?>
<!DOCTYPE svg PUBLIC "-//W3C//DTD SVG 20010904//EN"
 "http://www.w3.org/TR/2001/REC-SVG-20010904/DTD/svg10.dtd">
<svg version="1.0" xmlns="http://www.w3.org/2000/svg"
 width="240.000000pt" height="240.000000pt" viewBox="0 0 240.000000 240.000000"
 preserveAspectRatio="xMidYMid meet">
<metadata>
Created by potrace 1.10, written by Peter Selinger 2001-2011
</metadata>
<g transform="translate(0.000000,240.000000) scale(0.100000,-0.100000)"
fill="#000000" stroke="none">
<path d="M845 2376 c-96 -27 -153 -55 -221 -110 -57 -45 -84 -83 -84 -117 0
-12 -11 -46 -26 -76 -14 -30 -28 -77 -31 -106 -3 -29 -15 -65 -27 -82 -15 -22
-21 -45 -21 -85 1 -47 6 -64 39 -113 21 -31 67 -84 102 -116 l65 -59 -83 -27
c-113 -38 -251 -103 -322 -153 -44 -31 -69 -42 -97 -42 -74 0 -83 -14 -49 -81
l21 -39 -25 -25 c-41 -41 -51 -66 -32 -80 21 -16 176 -30 303 -28 l103 2 0
-82 c0 -45 4 -102 8 -127 7 -43 5 -49 -45 -126 -68 -105 -93 -184 -93 -292 l0
-83 -43 -41 -42 -41 33 -9 c24 -6 32 -13 28 -24 -3 -7 -9 -21 -13 -30 -4 -12
-2 -15 13 -11 10 3 39 9 63 12 l43 7 -7 -31 c-8 -39 2 -40 92 -5 38 14 95 34
127 45 68 22 96 43 96 72 0 11 11 40 25 64 29 48 44 52 115 27 42 -15 117 -28
235 -41 28 -3 53 -10 57 -17 16 -24 57 -164 63 -214 l7 -53 42 7 c62 12 80 9
122 -20 48 -33 64 -33 95 0 23 24 28 25 88 19 l64 -7 -6 29 c-3 15 -10 45 -14
67 -4 21 -6 61 -4 88 3 45 5 49 25 44 163 -47 351 -58 452 -27 175 53 267 168
268 336 1 68 -3 89 -28 143 -47 102 -130 155 -246 155 -123 0 -228 -57 -306
-165 -39 -56 -153 -178 -166 -178 -3 0 4 20 18 44 68 121 98 276 92 463 -4
104 -10 141 -30 198 -31 86 -69 169 -80 173 -4 2 -8 8 -8 14 0 14 -89 129
-116 150 -22 18 -38 84 -24 103 5 6 16 35 25 65 70 230 -43 490 -258 595 -141
69 -244 80 -382 41z"/>
</g>
</svg>
