<?xml version="1.0" standalone="no"?>
<!DOCTYPE svg PUBLIC "-//W3C//DTD SVG 20010904//EN"
 "http://www.w3.org/TR/2001/REC-SVG-20010904/DTD/svg10.dtd">
<svg version="1.0" xmlns="http://www.w3.org/2000/svg"
 width="147.000000pt" height="197.000000pt" viewBox="0 0 147.000000 197.000000"
 preserveAspectRatio="xMidYMid meet">
<metadata>
Created by potrace 1.10, written by Peter Selinger 2001-2011
</metadata>
<g transform="translate(0.000000,197.000000) scale(0.100000,-0.100000)"
fill="#000000" stroke="none">
<path d="M125 1961 c-3 -6 8 -24 26 -39 18 -15 58 -48 89 -74 42 -37 63 -48
90 -48 19 0 55 -5 80 -11 50 -11 160 -58 160 -68 0 -3 -23 -18 -50 -33 -89
-50 -164 -172 -177 -293 -4 -35 -14 -59 -32 -79 l-26 -29 28 5 c23 5 28 1 33
-21 5 -24 33 -107 48 -141 5 -12 -6 -18 -50 -28 -31 -8 -57 -12 -59 -10 -1 2
-10 19 -20 38 l-18 34 -38 -44 c-21 -24 -46 -59 -56 -77 -10 -18 -22 -33 -29
-33 -22 0 -82 -87 -113 -167 -12 -30 -11 -34 8 -50 19 -15 23 -33 30 -118 15
-179 76 -287 216 -381 79 -52 147 -82 232 -104 38 -10 45 -16 64 -60 32 -74
44 -81 151 -87 109 -6 118 -1 146 72 21 55 18 54 156 74 134 19 265 111 320
223 14 29 30 86 36 126 9 63 7 85 -10 155 -12 48 -29 91 -43 105 -17 18 -23
40 -27 90 l-5 67 -57 34 -58 34 0 76 c0 42 4 82 8 88 5 8 28 12 63 10 50 -2
54 0 57 21 3 18 -3 26 -26 34 -24 9 -31 19 -36 48 -7 42 -55 94 -83 88 -12 -2
-22 -18 -30 -53 -8 -31 -22 -58 -38 -70 -32 -26 -32 -40 0 -61 28 -18 31 -46
14 -106 -15 -55 -53 -51 -128 14 -28 25 -40 29 -75 26 -23 -3 -58 1 -80 9 -21
7 -56 13 -77 13 -68 0 -146 70 -171 152 -21 72 27 161 69 127 8 -8 29 -38 46
-67 16 -30 40 -59 53 -64 13 -6 24 -16 24 -22 0 -6 10 -22 21 -36 l20 -25 -6
33 c-6 31 -6 32 29 32 32 0 36 3 42 35 3 19 11 38 16 41 10 6 0 66 -12 74 -16
11 -50 94 -41 103 4 4 29 9 55 10 25 1 46 5 46 10 0 4 9 7 20 7 11 0 20 7 20
15 0 16 38 41 58 37 16 -4 30 34 24 65 -5 28 -22 38 -81 47 -24 4 -84 22 -133
41 -55 22 -99 33 -113 29 -16 -4 -27 1 -38 16 -19 28 -37 18 -37 -21 l0 -29
-37 16 c-92 39 -431 173 -455 179 -15 4 -29 2 -33 -4z m1085 -676 c20 -24 6
-28 -15 -5 -10 11 -13 20 -8 20 6 0 16 -7 23 -15z m-580 -381 c16 -40 12 -79
-9 -98 -23 -21 -40 -17 -104 24 -32 20 -45 34 -41 45 3 8 12 15 20 15 8 0 22
9 31 20 12 13 30 20 55 20 32 0 40 -4 48 -26z m-71 -188 c8 -9 28 -16 47 -16
28 0 36 6 50 33 9 17 18 33 19 35 2 2 45 -20 97 -48 52 -27 100 -50 106 -50 6
0 27 14 45 30 19 16 39 30 45 30 14 0 71 -60 88 -93 8 -16 16 -46 17 -69 1
-34 -4 -45 -35 -73 -20 -18 -61 -41 -92 -51 -69 -22 -86 -14 -137 59 l-35 52
-70 -2 c-38 -1 -87 -8 -108 -15 -33 -11 -42 -20 -54 -55 -17 -53 -39 -56 -103
-14 -110 71 -189 200 -158 257 9 18 24 24 66 30 41 5 58 12 70 30 l15 23 57
-38 c31 -21 63 -46 70 -55z"/>
</g>
</svg>
