<?xml version="1.0" standalone="no"?>
<!DOCTYPE svg PUBLIC "-//W3C//DTD SVG 20010904//EN"
 "http://www.w3.org/TR/2001/REC-SVG-20010904/DTD/svg10.dtd">
<svg version="1.0" xmlns="http://www.w3.org/2000/svg"
 width="240.000000pt" height="240.000000pt" viewBox="0 0 240.000000 240.000000"
 preserveAspectRatio="xMidYMid meet">
<metadata>
Created by potrace 1.10, written by Peter Selinger 2001-2011
</metadata>
<g transform="translate(0.000000,240.000000) scale(0.100000,-0.100000)"
fill="#000000" stroke="none">
<path d="M675 2382 c-91 -27 -132 -50 -194 -108 -74 -69 -122 -149 -126 -211
-2 -26 -8 -78 -14 -114 -6 -37 -8 -80 -5 -96 3 -18 -3 -61 -15 -105 -12 -41
-21 -84 -21 -97 0 -39 38 -98 92 -141 51 -41 199 -120 224 -120 36 0 18 -23
-38 -49 -35 -16 -103 -48 -153 -71 -49 -24 -105 -44 -123 -45 -18 -1 -36 -5
-39 -9 -3 -3 -19 -6 -35 -6 -25 0 -28 -3 -23 -20 5 -16 2 -20 -17 -20 -23 0
-57 -16 -48 -22 3 -2 28 -23 57 -46 48 -40 51 -45 43 -73 -11 -38 2 -44 60
-29 24 6 63 9 89 6 25 -3 80 -2 122 2 l77 8 -5 -141 c-4 -114 -8 -142 -22
-153 -57 -44 -136 -135 -163 -189 -37 -75 -42 -167 -13 -223 l18 -34 -29 -24
c-96 -79 -124 -104 -124 -113 0 -5 14 -9 30 -9 27 0 30 -2 24 -25 -8 -31 4
-32 57 -4 l41 20 -7 -20 c-8 -27 -5 -26 74 5 36 15 116 39 176 54 l110 27 3
41 c2 22 9 45 16 51 7 6 51 19 96 28 72 14 97 15 179 5 53 -7 110 -12 127 -12
49 0 103 -67 148 -183 12 -28 25 -41 53 -53 21 -8 47 -19 58 -24 52 -22 116
-42 121 -37 3 3 0 15 -6 28 -11 20 -11 21 11 15 85 -25 121 -16 99 24 -10 18
-8 20 20 20 16 0 30 5 30 10 0 6 -27 36 -60 68 -79 77 -79 101 0 122 170 44
326 180 391 340 27 66 49 176 49 242 0 32 3 34 58 53 53 19 57 22 55 50 -1 17
11 63 27 104 34 82 37 106 15 98 -11 -5 -12 -1 -5 18 12 31 -3 33 -24 3 -25
-35 -29 -14 -6 31 44 87 44 87 -4 135 -47 48 -51 61 -62 188 -4 43 -10 75 -15
73 -4 -3 -10 4 -14 15 -3 11 -12 20 -20 20 -7 0 -15 10 -19 22 -10 41 -24 6
-42 -107 -16 -99 -19 -107 -28 -77 -5 17 -13 32 -17 32 -5 0 -9 7 -9 16 0 30
-20 2 -26 -37 -6 -35 -24 -66 -24 -40 0 6 -4 11 -9 11 -5 0 -11 -48 -13 -107
-3 -106 -4 -109 -40 -162 -53 -75 -52 -107 7 -155 29 -25 45 -45 45 -60 0 -27
25 -52 68 -67 24 -8 32 -17 32 -34 0 -38 -67 -156 -117 -207 -74 -75 -228
-131 -316 -114 -31 6 -41 14 -58 49 -12 23 -42 74 -67 112 -24 39 -60 95 -80
125 -19 30 -47 74 -63 97 -16 23 -29 44 -29 48 0 4 17 4 39 0 54 -9 150 11
256 52 50 19 91 36 93 38 2 1 -5 10 -14 20 -16 16 -16 18 11 39 35 28 26 46
-22 46 -37 0 -38 4 -18 53 9 22 -16 23 -73 3 -40 -14 -41 -14 -239 64 -159 64
-199 83 -201 100 -3 20 12 67 62 185 32 74 34 156 7 281 -61 292 -142 434
-275 483 -83 31 -167 35 -241 13z"/>
</g>
</svg>
