<?xml version="1.0" standalone="no"?>
<!DOCTYPE svg PUBLIC "-//W3C//DTD SVG 20010904//EN"
 "http://www.w3.org/TR/2001/REC-SVG-20010904/DTD/svg10.dtd">
<svg version="1.0" xmlns="http://www.w3.org/2000/svg"
 width="300.000000pt" height="300.000000pt" viewBox="0 0 300.000000 300.000000"
 preserveAspectRatio="xMidYMid meet">
<metadata>
Created by potrace 1.10, written by Peter Selinger 2001-2011
</metadata>
<g transform="translate(0.000000,300.000000) scale(0.100000,-0.100000)"
fill="#000000" stroke="none">
<path d="M1350 2858 c0 -10 -101 -331 -107 -341 -3 -5 -21 6 -39 24 -26 25
-37 30 -46 21 -9 -9 -9 -18 1 -39 7 -15 16 -46 20 -70 8 -43 8 -44 -49 -104
-54 -57 -58 -59 -86 -48 -16 6 -80 13 -142 16 -109 6 -114 7 -109 27 2 12 17
67 32 124 25 97 27 132 7 132 -5 0 -37 -66 -72 -147 -58 -138 -67 -152 -124
-205 -33 -31 -64 -57 -67 -58 -3 0 -27 34 -53 74 -27 41 -57 83 -67 92 -41 37
-30 -16 30 -153 85 -193 81 -204 -27 -70 -29 38 -56 67 -58 65 -2 -2 3 -22 11
-44 7 -22 17 -68 20 -101 7 -58 6 -63 -20 -89 -36 -36 -26 -71 25 -88 28 -9
36 -17 38 -41 2 -16 8 -33 14 -36 7 -5 5 -15 -6 -30 -15 -22 -14 -24 6 -46 14
-15 23 -39 25 -65 2 -22 14 -66 28 -96 l25 -55 -25 -45 c-29 -52 -35 -106 -14
-127 8 -7 30 -18 49 -22 33 -9 35 -12 38 -54 3 -53 -22 -107 -60 -128 -24 -14
-28 -14 -47 3 -27 25 -27 60 2 79 21 15 21 16 2 16 -29 1 -45 -18 -45 -54 0
-40 32 -75 68 -75 55 1 102 67 102 145 0 50 0 50 46 33 41 -15 55 -4 79 60 10
26 34 65 54 87 23 25 42 58 49 88 12 46 51 119 71 132 18 11 67 -23 97 -67 28
-42 29 -47 28 -158 -1 -79 -7 -141 -22 -200 -41 -173 -27 -250 47 -250 27 0
28 -3 34 -54 3 -30 14 -75 25 -100 27 -59 92 -129 139 -148 126 -51 165 -63
224 -66 121 -7 261 54 311 137 12 20 51 68 88 106 48 52 74 89 94 140 19 47
43 83 71 110 23 22 52 57 64 78 13 20 27 37 32 37 21 0 79 -56 79 -75 0 -12 9
-37 19 -58 15 -30 17 -44 9 -75 -7 -30 -6 -47 6 -75 10 -26 12 -45 6 -68 -5
-17 -7 -43 -4 -57 4 -23 -1 -31 -38 -52 -62 -36 -269 -247 -298 -302 -28 -54
-22 -69 16 -39 34 26 54 27 54 1 0 -24 11 -25 50 -5 29 15 30 15 30 -5 0 -17
4 -20 21 -15 20 7 20 6 4 -19 -26 -39 -15 -49 29 -27 21 11 48 21 60 23 20 3
21 -1 17 -51 l-3 -55 26 17 c35 23 39 22 33 -13 -6 -26 -4 -30 15 -30 19 0 20
-4 14 -47 -8 -61 7 -47 35 31 39 114 59 242 61 395 1 113 5 159 20 204 18 55
28 229 17 282 -4 18 0 20 42 17 50 -4 69 9 49 33 -15 18 -4 52 20 60 20 6 33
31 24 46 -3 5 -16 9 -30 9 -13 0 -24 5 -24 11 0 11 70 79 83 79 4 0 7 9 7 21
0 17 -4 19 -22 13 -41 -12 -79 -35 -119 -71 -32 -29 -39 -32 -39 -17 -1 31
-36 100 -69 135 -17 17 -31 37 -31 44 0 7 -10 25 -21 39 l-22 28 57 57 c31 31
56 62 56 68 0 21 -21 25 -46 8 -14 -9 -27 -15 -29 -13 -8 8 43 104 79 151 47
61 46 71 -4 63 -48 -8 -50 1 -15 70 30 59 30 64 6 64 -21 0 -82 -64 -174 -183
-33 -42 -64 -74 -69 -69 -4 4 -11 36 -14 70 -8 75 -27 82 -43 15 -18 -81 -31
-165 -31 -202 -1 -32 -6 -39 -46 -63 -25 -16 -50 -28 -56 -28 -6 0 -30 -11
-52 -24 -46 -27 -97 -92 -115 -146 -6 -19 -31 -54 -55 -78 -24 -24 -54 -63
-67 -88 -27 -49 -45 -58 -35 -16 3 15 9 61 12 102 3 47 14 92 27 120 20 42 22
59 21 245 0 178 -3 206 -21 252 -24 61 -27 57 81 118 55 32 72 46 74 66 3 23
0 25 -32 21 -26 -3 -37 0 -42 12 -7 19 6 41 80 125 59 68 74 97 59 112 -6 6
-47 -21 -108 -71 -54 -44 -103 -79 -109 -77 -7 3 -10 24 -8 56 3 41 0 51 -12
51 -9 0 -22 -13 -31 -30 -9 -16 -19 -30 -24 -30 -5 0 -33 28 -64 63 -30 34
-71 71 -91 82 -20 11 -36 25 -36 31 0 6 13 56 29 110 17 55 26 103 22 107 -4
4 -28 -18 -52 -50 -38 -51 -44 -55 -47 -35 -2 12 4 73 13 134 16 110 16 112
-4 132 -12 11 -21 17 -21 14z m-766 -1201 c8 -47 2 -97 -12 -97 -15 0 -44 99
-38 126 11 43 39 26 50 -29z m484 33 c18 -11 53 -41 78 -66 43 -45 45 -46 64
-29 16 14 18 26 13 61 -4 29 -2 44 5 44 23 0 24 -52 2 -158 -16 -81 -19 -115
-11 -135 6 -15 6 -29 1 -32 -21 -13 -71 -168 -69 -214 3 -53 -5 -73 -25 -65
-11 4 -13 -3 -9 -33 3 -24 -1 -45 -10 -57 -14 -19 -16 -19 -40 -3 -32 20 -38
71 -20 152 7 33 20 89 28 125 19 86 22 204 6 260 -9 31 -28 60 -63 93 -46 46
-48 49 -31 62 25 20 42 18 81 -5z"/>
</g>
</svg>
